<svg xmlns="http://www.w3.org/2000/svg" viewBox="0 0 142 40"><symbol xmlns="http://www.w3.org/2000/svg" viewBox="0 0 142 40" id="brand-logo"><path fill="none" d="M-1-1h144v42H-1z"/><g clip-path="url(#clip0)"><path d="M5.833 21.212h2.333v8.242l5.25 5.455h11.55v-1.94h22.048L53.664 40h59.03l3.616-7.03h24.266V18.06c.933-.727 1.516-1.696 1.633-2.908 0-1.213-.35-2.061-.933-2.788l-5.95-6.303c-.7-.849-1.867-1.334-2.8-1.334-1.75 0-2.916 1.212-3.383 2.303h-16.449L105.928 0H0v15.151l5.833 6.061z"/><path d="M105.578.727l6.766 7.03h17.382s.584-2.181 2.917-2.302c.816 0 1.75.363 2.216 1.09l6.067 6.304c.583.606.7 1.454.7 2.303-.117 1.212-.7 2.06-1.634 2.545v14.546H115.96l-3.616 7.03h-58.33l-6.767-7.03H24.265v1.939h-10.5L8.867 29.09v-8.727h-2.8L.7 14.788V.728h104.878z" fill="#F4E116"/><path d="M14.116 26.667h3.033V9.212h71.98v-3.03H4.083v3.03h10.033v17.455z" fill="#F4E116"/><path d="M14.116 26.667h3.033V9.212h71.98v-3.03H4.083v3.03h10.033v17.455z"/><path d="M22.399 20.364h5.25v-2.788h-5.25v-1.333h8.283v-3.03h-11.2v11.514h11.316v-3.03h-8.4v-1.333z" fill="#F4E116"/><path d="M22.399 20.364h5.25v-2.788h-5.25v-1.333h8.283v-3.03h-11.2v11.514h11.316v-3.03h-8.4v-1.333z"/><path d="M59.03 24.727V13.212h-2.916v4.364h-6.067v-4.364h-2.916v11.515h2.916v-4.363h6.067v4.363h2.916z" fill="#F4E116"/><path d="M59.03 24.727V13.212h-2.916v4.364h-6.067v-4.364h-2.916v11.515h2.916v-4.363h6.067v4.363h2.916z" stroke="null"/><path d="M70.346 24.727h3.967V13.212h-2.917v8.121l-6.183-8.12H61.13v11.514h2.916v-8.12l6.3 8.12z" fill="#F4E116"/><path d="M70.346 24.727h3.967V13.212h-2.917v8.121l-6.183-8.12H61.13v11.514h2.916v-8.12l6.3 8.12z"/><path d="M79.446 20.848v-2.424 2.424c0 .485.35.849.816.849h2.45-2.45c-.466 0-.816-.364-.816-.849z" fill="#F4E116"/><path d="M79.446 20.848v-2.424 2.424c0 .485.35.849.816.849h2.45-2.45c-.466 0-.816-.364-.816-.849z"/><path d="M85.862 13.212c.933 0 1.867.485 2.45 1.091-.7-.606-1.517-1.09-2.45-1.09h-6.066c-.817 0-1.634.363-2.217.848.583-.485 1.4-.849 2.217-.849h6.066z" fill="#F4E116"/><path d="M85.862 13.212c.933 0 1.867.485 2.45 1.091-.7-.606-1.517-1.09-2.45-1.09h-6.066c-.817 0-1.634.363-2.217.848.583-.485 1.4-.849 2.217-.849h6.066z"/><path d="M85.395 16.242h-5.133 5.133c.467 0 .817.364.817.849v3.636c0 .121 0 .243-.117.364 0-.121.117-.242.117-.364v-3.636c0-.485-.35-.849-.817-.849z" fill="#F4E116"/><path d="M85.395 16.242h-5.133 5.133c.467 0 .817.364.817.849v3.636c0 .121 0 .243-.117.364 0-.121.117-.242.117-.364v-3.636c0-.485-.35-.849-.817-.849z"/><path d="M85.862 24.727h-6.066c-1.05 0-1.867-.485-2.567-1.212a3.292 3.292 0 002.567 1.212h6.066c.933 0 1.867-.485 2.45-1.09-.7.727-1.517 1.09-2.45 1.09z" fill="#F4E116"/><path d="M85.862 24.727h-6.066c-1.05 0-1.867-.485-2.567-1.212a3.292 3.292 0 002.567 1.212h6.066c.933 0 1.867-.485 2.45-1.09-.7.727-1.517 1.09-2.45 1.09z"/><path d="M42.114 20.364v.363c0 .485-.35.849-.816.849h-5.133c-.467 0-.817-.364-.817-.849v-3.636c0-.485.35-.848.817-.848h5.133c.467 0 .816.363.816.848v.364h2.917v-.849c0-1.94-1.517-3.394-3.266-3.394h-5.95c-1.867 0-3.383 1.576-3.383 3.394v4.606c0 1.94 1.516 3.394 3.266 3.394h6.067c1.866 0 3.266-1.576 3.266-3.394v-.97l-2.917.122z" fill="#F4E116"/><path d="M42.114 20.364v.363c0 .485-.35.849-.816.849h-5.133c-.467 0-.817-.364-.817-.849v-3.636c0-.485.35-.848.817-.848h5.133c.467 0 .816.363.816.848v.364h2.917v-.849c0-1.94-1.517-3.394-3.266-3.394h-5.95c-1.867 0-3.383 1.576-3.383 3.394v4.606c0 1.94 1.516 3.394 3.266 3.394h6.067c1.866 0 3.266-1.576 3.266-3.394v-.97l-2.917.122z"/><path d="M94.962 24.727h10.149v-8.485h-5.833v3.152h2.916v2.303h-6.882c-.467 0-.934-.485-.934-1.09v-7.274c0-.606.35-1.09.934-1.09h9.332v-3.03h-9.566c-1.983 0-3.616 1.939-3.616 4.242v7.03c-.117 2.303 1.4 4.242 3.5 4.242z" fill="#F4E116"/><path d="M94.962 24.727h10.149v-8.485h-5.833v3.152h2.916v2.303h-6.882c-.467 0-.934-.485-.934-1.09v-7.274c0-.606.35-1.09.934-1.09h9.332v-3.03h-9.566c-1.983 0-3.616 1.939-3.616 4.242v7.03c-.117 2.303 1.4 4.242 3.5 4.242z"/><path d="M122.493 24.727v-7.03l3.384 7.03h2.566l3.267-7.03v7.03h2.916V13.212h-4.083l-3.383 7.152-3.383-7.152h-4.2v11.515h2.916z" fill="#F4E116"/><path d="M122.493 24.727v-7.03l3.384 7.03h2.566l3.267-7.03v7.03h2.916V13.212h-4.083l-3.383 7.152-3.383-7.152h-4.2v11.515h2.916z"/><path d="M56.114 28.727v3.03h52.38l9.45-18.545h-3.267l-2.8 5.212-2.683-5.212h-3.383l4.433 8.364-3.733 7.151H56.114z" fill="#F4E116"/><path d="M56.114 28.727v3.03h52.38l9.45-18.545h-3.267l-2.8 5.212-2.683-5.212h-3.383l4.433 8.364-3.733 7.151H56.114z"/><path d="M132.526 11.152c1.283 0 2.333-1.091 2.333-2.425 0-1.333-1.05-2.424-2.333-2.424-1.283 0-2.333 1.091-2.333 2.424 0 1.334 1.05 2.425 2.333 2.425zm0-4.485c1.05 0 1.983.97 1.983 2.06 0 1.091-.933 2.061-1.983 2.061s-1.983-.97-1.983-2.06c0-1.213.933-2.061 1.983-2.061z" fill="#F4E116"/><path d="M132.526 11.152c1.283 0 2.333-1.091 2.333-2.425 0-1.333-1.05-2.424-2.333-2.424-1.283 0-2.333 1.091-2.333 2.424 0 1.334 1.05 2.425 2.333 2.425zm0-4.485c1.05 0 1.983.97 1.983 2.06 0 1.091-.933 2.061-1.983 2.061s-1.983-.97-1.983-2.06c0-1.213.933-2.061 1.983-2.061z"/><path d="M132.059 9.091h.7c.234 0 .35.121.35.364v.484h.467v-.484c0-.364-.117-.485-.35-.606.35-.122.467-.364.467-.728 0-.606-.234-.727-.7-.727h-1.167v2.424h.467v-.727h-.234zm0-1.212h.584c.35 0 .35.121.35.364 0 .363-.117.484-.467.484h-.583V7.88h.116z" fill="#F4E116"/><path d="M132.059 9.091h.7c.234 0 .35.121.35.364v.484h.467v-.484c0-.364-.117-.485-.35-.606.35-.122.467-.364.467-.728 0-.606-.234-.727-.7-.727h-1.167v2.424h.467v-.727h-.234zm0-1.212h.584c.35 0 .35.121.35.364 0 .363-.117.484-.467.484h-.583V7.88h.116z"/><path d="M132.059 9.091h.7c.234 0 .35.121.35.364v.484h.467v-.484c0-.364-.117-.485-.35-.606.35-.122.467-.364.467-.728 0-.606-.234-.727-.7-.727h-1.167v2.424h.467v-.727h-.234zm0-1.212h.584c.35 0 .35.121.35.364 0 .363-.117.484-.467.484h-.583V7.88h.116z"/><path d="M89.128 16.727v4.606-4.606c0-.848-.35-1.697-.933-2.303.583.485.933 1.334.933 2.303z" fill="#F4E116"/><path d="M89.128 16.727v4.606-4.606c0-.848-.35-1.697-.933-2.303.583.485.933 1.334.933 2.303z"/><path d="M85.395 21.697h-2.683 2.683c.35 0 .584-.242.817-.485-.233.243-.467.485-.817.485z" fill="#F4E116"/><path d="M85.395 21.697h-2.683 2.683c.35 0 .584-.242.817-.485-.233.243-.467.485-.817.485z"/><path d="M76.53 16.606c0-.97.466-1.94 1.166-2.546-.817.607-1.167 1.576-1.167 2.546v4.606c0 .848.35 1.576.817 2.182-.467-.606-.817-1.333-.817-2.182v-4.606z" fill="#F4E116"/><path d="M76.53 16.606c0-.97.466-1.94 1.166-2.546-.817.607-1.167 1.576-1.167 2.546v4.606c0 .848.35 1.576.817 2.182-.467-.606-.817-1.333-.817-2.182v-4.606z"/><path d="M79.679 16.485a.945.945 0 00-.233.606v1.333-1.333c0-.242.116-.364.233-.606z" fill="#F4E116"/><path d="M79.679 16.485a.945.945 0 00-.233.606v1.333-1.333c0-.242.116-.364.233-.606z"/><path d="M89.129 16.727c0-.848-.35-1.697-.934-2.303-.583-.727-1.516-1.09-2.45-1.09h-6.066c-.817 0-1.633.363-2.216.848a3.464 3.464 0 00-1.167 2.545v4.606c0 .849.35 1.576.816 2.182a3.292 3.292 0 002.567 1.212h6.066c.934 0 1.867-.485 2.45-1.09a3.374 3.374 0 00.934-2.304v-4.606zm-2.917 4.121c0 .122 0 .243-.117.364-.116.364-.466.485-.816.485h-5.133c-.467 0-.817-.364-.817-.848V17.09c0-.242.117-.485.233-.606a.874.874 0 01.584-.242h5.133c.466 0 .816.363.816.848l.117 3.757z" fill="#F4E116"/><path d="M89.129 16.727c0-.848-.35-1.697-.934-2.303-.583-.727-1.516-1.09-2.45-1.09h-6.066c-.817 0-1.633.363-2.216.848a3.464 3.464 0 00-1.167 2.545v4.606c0 .849.35 1.576.816 2.182a3.292 3.292 0 002.567 1.212h6.066c.934 0 1.867-.485 2.45-1.09a3.374 3.374 0 00.934-2.304v-4.606zm-2.917 4.121c0 .122 0 .243-.117.364-.116.364-.466.485-.816.485h-5.133c-.467 0-.817-.364-.817-.848V17.09c0-.242.117-.485.233-.606a.874.874 0 01.584-.242h5.133c.466 0 .816.363.816.848l.117 3.757z"/><path d="M89.129 16.727c0-.848-.35-1.697-.934-2.303-.583-.727-1.516-1.09-2.45-1.09h-6.066c-.817 0-1.633.363-2.216.848a3.464 3.464 0 00-1.167 2.545v4.606c0 .849.35 1.576.816 2.182a3.292 3.292 0 002.567 1.212h6.066c.934 0 1.867-.485 2.45-1.09a3.374 3.374 0 00.934-2.304v-4.606zm-2.917 4.121c0 .122 0 .243-.117.364-.116.364-.466.485-.816.485h-5.133c-.467 0-.817-.364-.817-.848V17.09c0-.242.117-.485.233-.606a.874.874 0 01.584-.242h5.133c.466 0 .816.363.816.848l.117 3.757z"/></g></symbol><use xlink:href="#brand-logo" xmlns:xlink="http://www.w3.org/1999/xlink"/></svg>